# xmcd
#
# Track frame offsets:
#	150
#	11599
#	26512
#	43606
#	59427
#	75376
#
# Disc length: 1255 seconds
# Revision: 0
# Processed by: cddbd v1.5.2PL0 Copyright (c) Steve Scherf et al.
# Submitted via: dBpowerAMP V12.0
#
DISCID=3d04e506
DTITLE=Morningside Fats - Rosewood Blues
DYEAR=2013
DGENRE=Blues
TTITLE0=Handy Man
TTITLE1=I'm not The Devil
TTITLE2=The Grass Is Greener
TTITLE3=Lipstick
TTITLE4=Someone Like You
TTITLE5=Two Black Crows
EXTD=
EXTT0=
EXTT1=
EXTT2=
EXTT3=
EXTT4=
EXTT5=
PLAYORDER=
